# xmcd
#
# Track frame offsets: 
#        150
#        12961
#        20642
#        31122
#        46416
#        65859
#        77552
#        89581
#        105044
#        114261
#        128043
#        144668
#        156824
#        171118
#        190598
#        207506
#
# Disc length: 3054 seconds
#
# Revision: 0
# Processed by: cddbd v1.5.2PL0 Copyright (c) Steve Scherf et al.
# Submitted via: ExactAudioCopy v0.99pb3
#
DISCID=cc0bec10
DTITLE=Hank and Anne Neufeld - Onse Baste Plautdietsche Leida No. 1
DYEAR=2005
DGENRE=Gospel
TTITLE0=Von De Herr Me Roupt Em Himmel
TTITLE1=Psalm 23
TTITLE2=Meen Basta Frint
TTITLE3=Uns Heiland
TTITLE4=Ne' Rade
TTITLE5=Ne Joaresfeia
TTITLE6=Vee Gliven on Jesus
TTITLE7=Hea Vee En Mon
TTITLE8=Aus En Ree
TTITLE9=Sind Enn Goaden
TTITLE10=MCC
TTITLE11=Meen Laven
TTITLE12=Een Scheena Morjen
TTITLE13=Yo Dot Ess Soo
TTITLE14=Ekj Vite Hee Helt Dane Morjen
TTITLE15=Vo Schein Best Du
EXTD=
EXTT0=
EXTT1=
EXTT2=
EXTT3=
EXTT4=
EXTT5=
EXTT6=
EXTT7=
EXTT8=
EXTT9=
EXTT10=
EXTT11=
EXTT12=
EXTT13=
EXTT14=
EXTT15=
PLAYORDER=
